# xmcd
#
# Track frame offsets:
#	150
#	22838
#	27057
#	44304
#	62479
#	82460
#	110896
#	133275
#	153256
#	176100
#	199720
#	214475
#	234172
#
# Disc length: 3467 seconds
#
# Revision: 0
# Processed by: cddbd v1.5.2PL0 Copyright (c) Steve Scherf et al.
# Submitted via: audiograbber 1.81.02
#
DISCID=b50d890d
DTITLE=Karen Davis - The Lord Roars From Zion
DYEAR=2009
DGENRE=
TTITLE0=Deep Calls To Deep
TTITLE1=The Lord Roars - Narration
TTITLE2=The Lord Roars From Zion
TTITLE3=Hoshia Na Eloheinu
TTITLE4=Baruch Adonai
TTITLE5=Let It Be Known
TTITLE6=The Lord´s Prayer
TTITLE7=Behold The Lion
TTITLE8=The Word Of The Lord
TTITLE9=Meshiach Yisrael
TTITLE10=Kadosh, Kadosh, Kadosh
TTITLE11=Yeshua Ata Yakar
TTITLE12=God Be Merciful
EXTD=www.gerth.de, Art.-Nr.: 3547048
EXTT0=
EXTT1=
EXTT2=
EXTT3=
EXTT4=
EXTT5=
EXTT6=
EXTT7=
EXTT8=
EXTT9=
EXTT10=
EXTT11=
EXTT12=
PLAYORDER=
